<svg width="137" height="138" viewBox="0 0 137 138" fill="none" xmlns="http://www.w3.org/2000/svg">
<ellipse cx="68.1826" cy="68.6496" rx="68.1826" ry="68.6496" fill="#E6E9EE"/>
<path d="M99.425 92.3733C103.029 92.3733 106.486 93.8051 109.034 96.3537C111.583 98.9023 113.015 102.359 113.015 105.963V109.202C113.015 125.406 93.9438 137.673 67.7154 137.673C41.4871 137.673 22.416 126.044 22.416 109.202V105.963C22.416 102.359 23.8478 98.9023 26.3964 96.3537C28.945 93.8051 32.4016 92.3733 36.0058 92.3733H99.425ZM67.7154 28.9541C71.2847 28.9541 74.819 29.6572 78.1166 31.0231C81.4142 32.389 84.4105 34.391 86.9343 36.9149C89.4582 39.4387 91.4602 42.435 92.8261 45.7326C94.1921 49.0302 94.8951 52.5645 94.8951 56.1338C94.8951 59.7031 94.1921 63.2374 92.8261 66.535C91.4602 69.8326 89.4582 72.8288 86.9343 75.3527C84.4105 77.8766 81.4142 79.8786 78.1166 81.2445C74.819 82.6104 71.2847 83.3134 67.7154 83.3134C60.5069 83.3134 53.5937 80.4499 48.4965 75.3527C43.3993 70.2555 40.5358 63.3423 40.5358 56.1338C40.5358 48.9253 43.3993 42.0121 48.4965 36.9149C53.5937 31.8177 60.5069 28.9541 67.7154 28.9541Z" fill="#B3BAC2"/>
<circle cx="115.033" cy="119.111" r="17.6735" stroke="#D4DDEB" stroke-width="0.527569"/>
<g filter="url(#filter0_d_30_421)">
<circle cx="115.898" cy="119.464" r="10.1985" fill="white"/>
</g>
<path d="M118.259 120.74H115.898V123.1C115.898 123.36 115.686 123.572 115.426 123.572C115.166 123.572 114.954 123.36 114.954 123.1V120.74H112.593C112.334 120.74 112.121 120.527 112.121 120.267C112.121 120.008 112.334 119.795 112.593 119.795H114.954V117.434C114.954 117.175 115.166 116.962 115.426 116.962C115.686 116.962 115.898 117.175 115.898 117.434V119.795H118.259C118.519 119.795 118.731 120.008 118.731 120.267C118.731 120.527 118.519 120.74 118.259 120.74Z" fill="black"/>
<defs>
<filter id="filter0_d_30_421" x="101.62" y="105.186" width="26.9238" height="26.9244" filterUnits="userSpaceOnUse" color-interpolation-filters="sRGB">
<feFlood flood-opacity="0" result="BackgroundImageFix"/>
<feColorMatrix in="SourceAlpha" type="matrix" values="0 0 0 0 0 0 0 0 0 0 0 0 0 0 0 0 0 0 127 0" result="hardAlpha"/>
<feOffset dx="-0.815913" dy="-0.815913"/>
<feGaussianBlur stdDeviation="1.63183"/>
<feComposite in2="hardAlpha" operator="out"/>
<feColorMatrix type="matrix" values="0 0 0 0 0 0 0 0 0 0 0 0 0 0 0 0 0 0 0.25 0"/>
<feBlend mode="normal" in2="BackgroundImageFix" result="effect1_dropShadow_30_421"/>
<feBlend mode="normal" in="SourceGraphic" in2="effect1_dropShadow_30_421" result="shape"/>
</filter>
</defs>
</svg>
