<svg width="86" height="21" viewBox="0 0 86 21" fill="none" xmlns="http://www.w3.org/2000/svg">
<path d="M8.02093 14H5.53893C2.69234 14 0.588949 11.7564 0.588949 8.79761C0.588949 5.79678 2.69234 3.80557 5.53893 3.80557H8.02093C10.9657 3.80557 13.013 5.83884 13.013 8.79761C13.013 11.7564 10.9236 14 8.02093 14ZM5.53893 12.2191H8.02093C9.89996 12.2191 11.2321 10.8028 11.2321 8.88175C11.2321 6.96065 9.89996 5.58644 8.02093 5.58644H5.53893C3.71599 5.58644 2.36982 6.94663 2.36982 8.88175C2.36982 10.8028 3.70197 12.2191 5.53893 12.2191ZM28.35 14H26.5831L24.634 6.83445L21.7453 13.4671C21.549 13.9018 21.2686 14.1402 20.8339 14.1402C20.4132 14.1402 20.1047 13.9018 19.9224 13.4671L17.0478 6.83445L15.0986 14H13.3458L15.968 4.40854C16.0942 3.91775 16.3747 3.67936 16.8514 3.67936C17.2301 3.67936 17.5806 3.8897 17.7489 4.28233L20.89 11.49L24.031 4.28233C24.1993 3.8897 24.5078 3.67936 24.8864 3.67936C25.3211 3.67936 25.6016 3.91775 25.7418 4.40854L28.35 14ZM41.5205 14H38.9964L36.4163 11.1674H32.6021V9.5969H36.851C38.127 9.5969 38.8001 8.86773 38.8001 7.5496C38.8001 6.23148 38.0709 5.58644 36.851 5.58644H31.298V14H29.5312V3.80557H36.851C39.1787 3.80557 40.5529 5.24989 40.5529 7.52156C40.5529 9.20427 39.7677 10.3962 38.4495 10.901L41.5205 14ZM55.2192 14H53.0737L51.5452 11.4339H46.7215L47.5628 9.98953H50.6899L48.4182 6.17539L43.7907 14H41.7575L47.6189 4.24027C47.8292 3.8897 48.0957 3.66534 48.4883 3.66534C48.8809 3.66534 49.1333 3.8897 49.3437 4.24027L55.2192 14ZM59.5571 14H57.7762V5.58644H53.906V3.80557H63.4273V5.58644H59.5571V14ZM73.7161 14H64.6014V3.80557H73.702V5.58644H66.3682V12.2191H73.7161V14ZM73.3234 9.56886H67.6723V8.06844H73.3234V9.56886ZM85.422 14H79.8971C77.0505 14 74.9471 11.7564 74.9471 8.79761C74.9471 5.79678 77.0505 3.80557 79.8971 3.80557H85.422V5.58644H79.8971C78.0741 5.58644 76.728 6.94663 76.728 8.88175C76.728 10.8028 78.0601 12.2191 79.8971 12.2191H85.422V14Z" fill="#363636"/>
<path d="M9.58342 19.3334H8.9708V16.4391H7.63944V15.8265H10.9148V16.4391H9.58342V19.3334ZM15.443 19.3334H14.5747L13.6871 18.359H12.3751V17.8187H13.8367C14.2756 17.8187 14.5072 17.5679 14.5072 17.1144C14.5072 16.661 14.2563 16.4391 13.8367 16.4391H11.9265V19.3334H11.3187V15.8265H13.8367C14.6374 15.8265 15.1101 16.3233 15.1101 17.1048C15.1101 17.6836 14.84 18.0937 14.3866 18.2673L15.443 19.3334ZM20.1553 19.3334H19.4173L18.8915 18.4506H17.2321L17.5215 17.9538H18.5972L17.8158 16.6417L16.2239 19.3334H15.5245L17.5408 15.976C17.6132 15.8554 17.7048 15.7783 17.8399 15.7783C17.975 15.7783 18.0618 15.8554 18.1342 15.976L20.1553 19.3334ZM21.1822 19.1838L19.1659 15.8265H19.9136L21.5054 18.5278L23.0924 15.8265H23.7967L21.7755 19.1838C21.7032 19.3044 21.6067 19.3816 21.4813 19.3816C21.3462 19.3816 21.2546 19.3044 21.1822 19.1838ZM27.3096 19.3334H24.1742V15.8265H27.3048V16.4391H24.782V18.7208H27.3096V19.3334ZM27.1746 17.8091H25.2306V17.2929H27.1746V17.8091ZM30.8058 19.3334H27.8344V15.8265H28.447V18.7208H30.8058V19.3334ZM37.0573 19.3334H36.3193L35.7935 18.4506H34.1341L34.4236 17.9538H35.4993L34.7178 16.6417L33.126 19.3334H32.4265L34.4429 15.976C34.5152 15.8554 34.6069 15.7783 34.7419 15.7783C34.877 15.7783 34.9638 15.8554 35.0362 15.976L37.0573 19.3334ZM40.6876 19.3334H38.57C37.5907 19.3334 36.8672 18.5616 36.8672 17.5438C36.8672 16.5115 37.5907 15.8265 38.57 15.8265H40.4705V16.4391H38.57C37.9429 16.4391 37.4798 16.907 37.4798 17.5727C37.4798 18.2336 37.938 18.7208 38.57 18.7208H40.0702V17.8091H38.488V17.2929H40.6876V19.3334ZM44.386 19.3334H41.2505V15.8265H44.3811V16.4391H41.8583V18.7208H44.386V19.3334ZM44.2509 17.8091H42.3069V17.2929H44.2509V17.8091ZM47.9449 19.2465L45.4799 16.7671V19.3334H44.8963V16.1497C44.8963 15.923 45.0169 15.7831 45.2098 15.7831C45.3015 15.7831 45.3786 15.8168 45.4703 15.9085L47.9449 18.3638V15.7976H48.5286V19.0102C48.5286 19.2417 48.4031 19.3768 48.2247 19.3768C48.1234 19.3768 48.0317 19.3334 47.9449 19.2465ZM52.6242 19.3334H50.7236C49.7444 19.3334 49.0208 18.5616 49.0208 17.5438C49.0208 16.5115 49.7444 15.8265 50.7236 15.8265H52.6242V16.4391H50.7236C50.0965 16.4391 49.6334 16.907 49.6334 17.5727C49.6334 18.2336 50.0917 18.7208 50.7236 18.7208H52.6242V19.3334ZM55.3549 19.3334H54.7423V18.002L52.8803 15.8265H53.7052L55.0703 17.4425L56.4402 15.8265H57.2217L55.3549 18.002V19.3334ZM62.7243 19.3334H60.6067C59.6274 19.3334 58.9039 18.5616 58.9039 17.5438C58.9039 16.5115 59.6274 15.8265 60.6067 15.8265H62.5072V16.4391H60.6067C59.9796 16.4391 59.5165 16.907 59.5165 17.5727C59.5165 18.2336 59.9747 18.7208 60.6067 18.7208H62.1069V17.8091H60.5247V17.2929H62.7243V19.3334ZM67.4115 19.3334H66.5432L65.6557 18.359H64.3436V17.8187H65.8052C66.2442 17.8187 66.4757 17.5679 66.4757 17.1144C66.4757 16.661 66.2249 16.4391 65.8052 16.4391H63.895V19.3334H63.2872V15.8265H65.8052C66.606 15.8265 67.0787 16.3233 67.0787 17.1048C67.0787 17.6836 66.8086 18.0937 66.3551 18.2673L67.4115 19.3334ZM70.1046 19.3334H69.2508C68.2716 19.3334 67.548 18.5616 67.548 17.5438C67.548 16.5115 68.2716 15.8265 69.2508 15.8265H70.1046C71.1176 15.8265 71.8219 16.5259 71.8219 17.5438C71.8219 18.5616 71.1031 19.3334 70.1046 19.3334ZM69.2508 18.7208H70.1046C70.751 18.7208 71.2093 18.2336 71.2093 17.5727C71.2093 16.9118 70.751 16.4391 70.1046 16.4391H69.2508C68.6237 16.4391 68.1606 16.907 68.1606 17.5727C68.1606 18.2336 68.6189 18.7208 69.2508 18.7208ZM75.4531 17.7849V15.8265H76.0512V17.7849C76.0512 18.8703 75.5158 19.3816 74.1555 19.3816C72.8048 19.3816 72.2646 18.8703 72.2646 17.7849V15.8265H72.8965V17.7849C72.8965 18.4892 73.21 18.7786 74.1748 18.7786C75.1395 18.7786 75.4531 18.4892 75.4531 17.7849ZM79.0693 18.359H77.6608V17.7656H79.0693C79.4986 17.7656 79.7543 17.4955 79.7543 17.1C79.7543 16.6948 79.4986 16.4391 79.0693 16.4391H77.2122V19.3334H76.6044V15.8265H79.0693C79.8797 15.8265 80.3524 16.3137 80.3524 17.0807C80.3524 17.838 79.8797 18.359 79.0693 18.359Z" fill="#363636"/>
</svg>
