<svg width="115" height="56" viewBox="0 0 115 56" fill="none" xmlns="http://www.w3.org/2000/svg">
<path d="M35.0602 40H27.2688L10.9228 27.1481C10.0392 26.4654 9.87857 25.8228 9.87857 25.0195C9.87857 24.136 10.1195 23.4934 11.1638 22.6901L26.6262 10.8022H34.4578L15.3406 25.0597L35.0602 40ZM8.31225 40H3.21167V10.8022H8.31225V40ZM55.2617 40H38.3535V10.8022H55.2617C63.4949 10.8022 69.4791 16.6257 69.4791 25.0999C69.4791 33.5741 63.4949 40 55.2617 40ZM43.4139 34.8994H55.2617C60.5229 34.8994 64.3785 30.843 64.3785 25.3408C64.3785 19.8386 60.5229 15.9028 55.2617 15.9028H43.4139V34.8994ZM113.451 40H108.391L102.808 19.4772L94.5349 38.4738C93.9726 39.7189 93.1694 40.4016 91.9244 40.4016C90.7195 40.4016 89.8359 39.7189 89.3138 38.4738L81.0806 19.4772L75.4981 40H70.4778L77.9881 12.5291C78.3496 11.1235 79.1528 10.4407 80.5183 10.4407C81.6027 10.4407 82.6068 11.0431 83.0887 12.1677L92.085 32.811L101.081 12.1677C101.563 11.0431 102.447 10.4407 103.531 10.4407C104.776 10.4407 105.579 11.1235 105.981 12.5291L113.451 40Z" fill="white"/>
<path d="M3.20671 54.0676H2.24394V49.519H0.151617V48.5563H5.29903V49.519H3.20671V54.0676ZM12.4154 54.0676H11.0508L9.65595 52.5362H7.59395V51.6872H9.89096C10.5808 51.6872 10.9447 51.293 10.9447 50.5804C10.9447 49.8678 10.5505 49.519 9.89096 49.519H6.88893V54.0676H5.93374V48.5563H9.89096C11.1494 48.5563 11.8923 49.3371 11.8923 50.5652C11.8923 51.4749 11.4678 52.1193 10.7552 52.3922L12.4154 54.0676ZM19.8211 54.0676H18.6612L17.8349 52.6803H15.2271L15.682 51.8994H17.3725L16.1444 49.8374L13.6427 54.0676H12.5435L15.7123 48.7913C15.826 48.6017 15.97 48.4805 16.1823 48.4805C16.3946 48.4805 16.531 48.6017 16.6447 48.7913L19.8211 54.0676ZM21.435 53.8325L18.2662 48.5563H19.4412L21.9429 52.8015L24.437 48.5563H25.5438L22.3674 53.8325C22.2537 54.0221 22.1021 54.1434 21.905 54.1434C21.6927 54.1434 21.5487 54.0221 21.435 53.8325ZM31.0646 54.0676H26.137V48.5563H31.057V49.519H27.0922V53.1048H31.0646V54.0676ZM30.8523 51.672H27.7973V50.8608H30.8523V51.672ZM36.5591 54.0676H31.8893V48.5563H32.8521V53.1048H36.5591V54.0676ZM46.3838 54.0676H45.2239L44.3976 52.6803H41.7898L42.2446 51.8994H43.9351L42.707 49.8374L40.2054 54.0676H39.1061L42.2749 48.7913C42.3886 48.6017 42.5327 48.4805 42.7449 48.4805C42.9572 48.4805 43.0937 48.6017 43.2074 48.7913L46.3838 54.0676ZM52.089 54.0676H48.761C47.222 54.0676 46.0849 52.8546 46.0849 51.255C46.0849 49.6327 47.222 48.5563 48.761 48.5563H51.7478V49.519H48.761C47.7754 49.519 47.0477 50.2544 47.0477 51.3005C47.0477 52.3391 47.7679 53.1048 48.761 53.1048H51.1186V51.672H48.6321V50.8608H52.089V54.0676ZM57.9012 54.0676H52.9736V48.5563H57.8936V49.519H53.9288V53.1048H57.9012V54.0676ZM57.6889 51.672H54.6338V50.8608H57.6889V51.672ZM63.4943 53.9311L59.6204 50.0345V54.0676H58.7031V49.0642C58.7031 48.7079 58.8927 48.488 59.1959 48.488C59.3399 48.488 59.4612 48.5411 59.6053 48.6851L63.4943 52.5438V48.5108H64.4115V53.5596C64.4115 53.9235 64.2144 54.1358 63.9339 54.1358C63.7747 54.1358 63.6307 54.0676 63.4943 53.9311ZM70.848 54.0676H67.8612C66.3223 54.0676 65.1851 52.8546 65.1851 51.255C65.1851 49.6327 66.3223 48.5563 67.8612 48.5563H70.848V49.519H67.8612C66.8757 49.519 66.1479 50.2544 66.1479 51.3005C66.1479 52.3391 66.8681 53.1048 67.8612 53.1048H70.848V54.0676ZM75.1396 54.0676H74.1768V51.9752L71.2506 48.5563H72.5469L74.6923 51.0959L76.8453 48.5563H78.0734L75.1396 51.9752V54.0676ZM86.7211 54.0676H83.3931C81.8542 54.0676 80.717 52.8546 80.717 51.255C80.717 49.6327 81.8542 48.5563 83.3931 48.5563H86.3799V49.519H83.3931C82.4076 49.519 81.6798 50.2544 81.6798 51.3005C81.6798 52.3391 82.4 53.1048 83.3931 53.1048H85.7507V51.672H83.2642V50.8608H86.7211V54.0676ZM94.0874 54.0676H92.7228L91.3279 52.5362H89.2659V51.6872H91.5629C92.2528 51.6872 92.6167 51.293 92.6167 50.5804C92.6167 49.8678 92.2225 49.519 91.5629 49.519H88.5609V54.0676H87.6057V48.5563H91.5629C92.8214 48.5563 93.5643 49.3371 93.5643 50.5652C93.5643 51.4749 93.1398 52.1193 92.4272 52.3922L94.0874 54.0676ZM98.3197 54.0676H96.9779C95.439 54.0676 94.3019 52.8546 94.3019 51.255C94.3019 49.6327 95.439 48.5563 96.9779 48.5563H98.3197C99.9117 48.5563 101.019 49.6555 101.019 51.255C101.019 52.8546 99.889 54.0676 98.3197 54.0676ZM96.9779 53.1048H98.3197C99.3356 53.1048 100.056 52.3391 100.056 51.3005C100.056 50.262 99.3356 49.519 98.3197 49.519H96.9779C95.9924 49.519 95.2646 50.2544 95.2646 51.3005C95.2646 52.3391 95.9848 53.1048 96.9779 53.1048ZM106.725 51.6341V48.5563H107.665V51.6341C107.665 53.3398 106.824 54.1434 104.686 54.1434C102.563 54.1434 101.714 53.3398 101.714 51.6341V48.5563H102.707V51.6341C102.707 52.7409 103.2 53.1958 104.716 53.1958C106.232 53.1958 106.725 52.7409 106.725 51.6341ZM112.408 52.5362H110.195V51.6038H112.408C113.083 51.6038 113.485 51.1792 113.485 50.5576C113.485 49.9208 113.083 49.519 112.408 49.519H109.49V54.0676H108.535V48.5563H112.408C113.682 48.5563 114.425 49.3219 114.425 50.5273C114.425 51.7175 113.682 52.5362 112.408 52.5362Z" fill="white"/>
</svg>
