<svg width="86" height="21" viewBox="0 0 86 21" fill="none" xmlns="http://www.w3.org/2000/svg">
<path d="M8.02093 14H5.53893C2.69234 14 0.588949 11.7564 0.588949 8.79761C0.588949 5.79678 2.69234 3.80557 5.53893 3.80557H8.02093C10.9657 3.80557 13.013 5.83884 13.013 8.79761C13.013 11.7564 10.9236 14 8.02093 14ZM5.53893 12.2191H8.02093C9.89996 12.2191 11.2321 10.8028 11.2321 8.88175C11.2321 6.96065 9.89996 5.58644 8.02093 5.58644H5.53893C3.71599 5.58644 2.36982 6.94663 2.36982 8.88175C2.36982 10.8028 3.70197 12.2191 5.53893 12.2191ZM28.35 14H26.5831L24.634 6.83445L21.7453 13.4671C21.549 13.9018 21.2686 14.1402 20.8339 14.1402C20.4132 14.1402 20.1047 13.9018 19.9224 13.4671L17.0478 6.83445L15.0986 14H13.3458L15.968 4.40854C16.0942 3.91775 16.3747 3.67936 16.8514 3.67936C17.2301 3.67936 17.5806 3.8897 17.7489 4.28233L20.89 11.49L24.031 4.28233C24.1993 3.8897 24.5078 3.67936 24.8864 3.67936C25.3211 3.67936 25.6016 3.91775 25.7418 4.40854L28.35 14ZM41.5205 14H38.9964L36.4163 11.1674H32.6021V9.5969H36.851C38.127 9.5969 38.8001 8.86773 38.8001 7.5496C38.8001 6.23148 38.0709 5.58644 36.851 5.58644H31.298V14H29.5312V3.80557H36.851C39.1787 3.80557 40.5529 5.24989 40.5529 7.52156C40.5529 9.20427 39.7677 10.3962 38.4495 10.901L41.5205 14ZM55.2192 14H53.0737L51.5452 11.4339H46.7215L47.5628 9.98953H50.6899L48.4182 6.17539L43.7907 14H41.7575L47.6189 4.24027C47.8292 3.8897 48.0957 3.66534 48.4883 3.66534C48.8809 3.66534 49.1333 3.8897 49.3437 4.24027L55.2192 14ZM59.5571 14H57.7762V5.58644H53.906V3.80557H63.4273V5.58644H59.5571V14ZM73.7161 14H64.6014V3.80557H73.702V5.58644H66.3682V12.2191H73.7161V14ZM73.3234 9.56886H67.6723V8.06844H73.3234V9.56886ZM85.422 14H79.8971C77.0505 14 74.9471 11.7564 74.9471 8.79761C74.9471 5.79678 77.0505 3.80557 79.8971 3.80557H85.422V5.58644H79.8971C78.0741 5.58644 76.728 6.94663 76.728 8.88175C76.728 10.8028 78.0601 12.2191 79.8971 12.2191H85.422V14Z" fill="white"/>
<path d="M9.5844 19.3334H8.97178V16.4391H7.64042V15.8265H10.9158V16.4391H9.5844V19.3334ZM15.444 19.3334H14.5757L13.6881 18.359H12.376V17.8187H13.8376C14.2766 17.8187 14.5081 17.5679 14.5081 17.1144C14.5081 16.661 14.2573 16.4391 13.8376 16.4391H11.9274V19.3334H11.3196V15.8265H13.8376C14.6384 15.8265 15.1111 16.3233 15.1111 17.1048C15.1111 17.6836 14.841 18.0937 14.3876 18.2673L15.444 19.3334ZM20.1563 19.3334H19.4182L18.8925 18.4506H17.2331L17.5225 17.9538H18.5982L17.8168 16.6417L16.2249 19.3334H15.5255L17.5418 15.976C17.6142 15.8554 17.7058 15.7783 17.8409 15.7783C17.9759 15.7783 18.0628 15.8554 18.1351 15.976L20.1563 19.3334ZM21.1832 19.1838L19.1668 15.8265H19.9145L21.5064 18.5278L23.0934 15.8265H23.7977L21.7765 19.1838C21.7041 19.3044 21.6077 19.3816 21.4823 19.3816C21.3472 19.3816 21.2555 19.3044 21.1832 19.1838ZM27.3106 19.3334H24.1752V15.8265H27.3058V16.4391H24.783V18.7208H27.3106V19.3334ZM27.1755 17.8091H25.2316V17.2929H27.1755V17.8091ZM30.8068 19.3334H27.8354V15.8265H28.448V18.7208H30.8068V19.3334ZM37.0583 19.3334H36.3203L35.7945 18.4506H34.1351L34.4245 17.9538H35.5002L34.7188 16.6417L33.1269 19.3334H32.4275L34.4438 15.976C34.5162 15.8554 34.6078 15.7783 34.7429 15.7783C34.878 15.7783 34.9648 15.8554 35.0372 15.976L37.0583 19.3334ZM40.6886 19.3334H38.5709C37.5917 19.3334 36.8681 18.5616 36.8681 17.5438C36.8681 16.5115 37.5917 15.8265 38.5709 15.8265H40.4715V16.4391H38.5709C37.9438 16.4391 37.4808 16.907 37.4808 17.5727C37.4808 18.2336 37.939 18.7208 38.5709 18.7208H40.0711V17.8091H38.4889V17.2929H40.6886V19.3334ZM44.3869 19.3334H41.2515V15.8265H44.3821V16.4391H41.8593V18.7208H44.3869V19.3334ZM44.2519 17.8091H42.3079V17.2929H44.2519V17.8091ZM47.9459 19.2465L45.4809 16.7671V19.3334H44.8972V16.1497C44.8972 15.923 45.0178 15.7831 45.2108 15.7831C45.3024 15.7831 45.3796 15.8168 45.4713 15.9085L47.9459 18.3638V15.7976H48.5295V19.0102C48.5295 19.2417 48.4041 19.3768 48.2256 19.3768C48.1243 19.3768 48.0327 19.3334 47.9459 19.2465ZM52.6251 19.3334H50.7246C49.7453 19.3334 49.0218 18.5616 49.0218 17.5438C49.0218 16.5115 49.7453 15.8265 50.7246 15.8265H52.6251V16.4391H50.7246C50.0975 16.4391 49.6344 16.907 49.6344 17.5727C49.6344 18.2336 50.0927 18.7208 50.7246 18.7208H52.6251V19.3334ZM55.3559 19.3334H54.7433V18.002L52.8813 15.8265H53.7061L55.0713 17.4425L56.4412 15.8265H57.2227L55.3559 18.002V19.3334ZM62.7253 19.3334H60.6076C59.6284 19.3334 58.9048 18.5616 58.9048 17.5438C58.9048 16.5115 59.6284 15.8265 60.6076 15.8265H62.5082V16.4391H60.6076C59.9805 16.4391 59.5175 16.907 59.5175 17.5727C59.5175 18.2336 59.9757 18.7208 60.6076 18.7208H62.1078V17.8091H60.5256V17.2929H62.7253V19.3334ZM67.4125 19.3334H66.5442L65.6567 18.359H64.3446V17.8187H65.8062C66.2451 17.8187 66.4767 17.5679 66.4767 17.1144C66.4767 16.661 66.2259 16.4391 65.8062 16.4391H63.896V19.3334H63.2882V15.8265H65.8062C66.6069 15.8265 67.0797 16.3233 67.0797 17.1048C67.0797 17.6836 66.8095 18.0937 66.3561 18.2673L67.4125 19.3334ZM70.1056 19.3334H69.2518C68.2726 19.3334 67.549 18.5616 67.549 17.5438C67.549 16.5115 68.2726 15.8265 69.2518 15.8265H70.1056C71.1186 15.8265 71.8229 16.5259 71.8229 17.5438C71.8229 18.5616 71.1041 19.3334 70.1056 19.3334ZM69.2518 18.7208H70.1056C70.752 18.7208 71.2102 18.2336 71.2102 17.5727C71.2102 16.9118 70.752 16.4391 70.1056 16.4391H69.2518C68.6247 16.4391 68.1616 16.907 68.1616 17.5727C68.1616 18.2336 68.6199 18.7208 69.2518 18.7208ZM75.4541 17.7849V15.8265H76.0522V17.7849C76.0522 18.8703 75.5168 19.3816 74.1565 19.3816C72.8058 19.3816 72.2655 18.8703 72.2655 17.7849V15.8265H72.8975V17.7849C72.8975 18.4892 73.211 18.7786 74.1758 18.7786C75.1405 18.7786 75.4541 18.4892 75.4541 17.7849ZM79.0703 18.359H77.6618V17.7656H79.0703C79.4996 17.7656 79.7553 17.4955 79.7553 17.1C79.7553 16.6948 79.4996 16.4391 79.0703 16.4391H77.2132V19.3334H76.6054V15.8265H79.0703C79.8807 15.8265 80.3534 16.3137 80.3534 17.0807C80.3534 17.838 79.8807 18.359 79.0703 18.359Z" fill="white"/>
</svg>
